<?xml version="1.0" standalone="no"?>
<!DOCTYPE svg PUBLIC "-//W3C//DTD SVG 20010904//EN"
 "http://www.w3.org/TR/2001/REC-SVG-20010904/DTD/svg10.dtd">
<svg version="1.0" xmlns="http://www.w3.org/2000/svg"
 width="260.000000pt" height="260.000000pt" viewBox="0 0 260.000000 260.000000"
 preserveAspectRatio="xMidYMid meet">
<metadata>
Created by potrace 1.11, written by Peter Selinger 2001-2013
</metadata>
<g transform="translate(0.000000,260.000000) scale(0.100000,-0.100000)"
fill="#000000" stroke="none">
<path d="M0 1300 l0 -1300 1300 0 1300 0 0 1300 0 1300 -1300 0 -1300 0 0
-1300z m554 643 c2 -10 51 -248 107 -530 57 -281 106 -510 110 -508 3 2 156
241 339 530 l334 525 54 0 54 0 -8 -32 c-4 -18 -59 -274 -124 -568 l-116 -535
-37 -3 c-20 -2 -37 -2 -37 0 0 2 54 239 119 528 65 289 118 526 117 527 -1 1
-153 -235 -337 -525 -335 -526 -335 -527 -371 -530 -28 -2 -38 1 -42 15 -2 10
-51 243 -107 518 -55 275 -104 503 -108 507 -3 4 -52 -221 -109 -500 -57 -279
-106 -515 -108 -524 -4 -13 -16 -18 -40 -18 -19 0 -34 3 -34 8 0 4 54 258 120
566 66 307 120 560 120 562 0 2 22 4 49 4 39 0 51 -4 55 -17z m1914 -10 l-3
-28 -325 -5 -325 -5 -41 -195 c-22 -107 -43 -210 -47 -227 l-6 -33 290 0 c261
0 291 -2 285 -16 -3 -9 -6 -22 -6 -30 0 -11 -49 -14 -292 -16 l-292 -3 -58
-275 c-31 -151 -57 -276 -58 -277 0 -2 -16 -3 -36 -3 -32 0 -36 3 -32 23 2 12
56 268 119 569 l114 548 358 0 358 0 -3 -27z"/>
</g>
</svg>
